<?xml version="1.0" standalone="no"?>
<!DOCTYPE svg PUBLIC "-//W3C//DTD SVG 20010904//EN"
 "http://www.w3.org/TR/2001/REC-SVG-20010904/DTD/svg10.dtd">
<svg version="1.0" xmlns="http://www.w3.org/2000/svg"
 width="257.000000pt" height="257.000000pt" viewBox="0 0 257.000000 257.000000"
 preserveAspectRatio="xMidYMid meet">
<metadata>
Created by potrace 1.14, written by Peter Selinger 2001-2017
</metadata>
<g transform="translate(0.000000,257.000000) scale(0.100000,-0.100000)"
fill="#000000" stroke="none">
<path d="M1285 2075 c-38 -8 -115 -38 -170 -65 -56 -28 -108 -50 -117 -50 -19
0 -48 37 -48 61 0 9 -8 23 -18 32 -16 15 -45 17 -199 17 -162 0 -182 -2 -196
-18 -16 -17 -17 -84 -17 -760 0 -660 2 -742 16 -756 13 -14 47 -16 214 -16
195 0 200 0 211 22 17 32 5 317 -20 460 -11 64 -41 208 -65 320 -54 245 -62
308 -46 368 22 84 70 116 205 136 254 39 475 -5 542 -107 14 -21 28 -61 32
-91 4 -29 13 -64 20 -76 22 -42 92 -64 222 -71 92 -6 122 -11 137 -25 43 -38
27 -112 -30 -143 -27 -14 -68 -18 -243 -23 -190 -5 -214 -8 -252 -28 -104 -54
-134 -160 -149 -529 -6 -142 -5 -165 10 -188 l16 -25 370 0 c329 0 370 2 385
16 15 15 16 64 13 523 -4 478 -5 510 -25 582 -59 213 -184 350 -378 415 -68
23 -100 28 -215 30 -93 3 -157 -1 -205 -11z"/>
<path d="M1334 1686 c-95 -42 -101 -177 -8 -221 46 -22 94 -13 135 23 63 56
43 165 -36 198 -42 17 -51 17 -91 0z"/>
</g>
</svg>
